<?xml version="1.0" standalone="no"?>
<!DOCTYPE svg PUBLIC "-//W3C//DTD SVG 20010904//EN"
 "http://www.w3.org/TR/2001/REC-SVG-20010904/DTD/svg10.dtd">
<svg version="1.0" xmlns="http://www.w3.org/2000/svg"
 width="512.000000pt" height="512.000000pt" viewBox="0 0 512.000000 512.000000"
 preserveAspectRatio="xMidYMid meet">

<g transform="translate(0.000000,512.000000) scale(0.100000,-0.100000)"
fill="#ffffff" stroke="none">
<path d="M1445 4873 c-258 -34 -484 -251 -530 -508 -17 -97 -21 -897 -5 -956
17 -61 51 -102 107 -129 45 -21 53 -30 58 -60 16 -84 49 -190 81 -257 47 -99
142 -222 220 -286 l64 -52 0 -121 0 -121 -54 -6 c-67 -7 -94 -21 -179 -95 -51
-45 -78 -61 -109 -66 -23 -4 -63 -16 -88 -27 -25 -12 -164 -59 -310 -105 -146
-46 -283 -91 -305 -101 -139 -60 -260 -174 -326 -307 -68 -139 -70 -163 -67
-725 3 -481 4 -497 24 -541 27 -56 83 -113 143 -142 l46 -23 1730 0 1730 0 47
23 c25 13 66 45 91 71 79 84 79 83 75 668 -4 456 -6 514 -22 563 -49 151 -153
286 -279 364 -78 48 -111 60 -352 136 -88 27 -196 68 -240 90 -53 26 -108 44
-163 54 -57 9 -91 21 -111 37 -16 13 -52 43 -80 66 -54 44 -102 63 -158 63
l-33 0 0 124 0 123 56 44 c76 60 176 186 224 284 33 68 61 156 85 275 4 18 20
32 58 50 40 19 59 37 82 74 l30 49 0 456 0 456 -26 56 c-47 99 -142 171 -246
184 l-49 7 -11 61 c-23 120 -123 220 -245 246 -46 10 -891 14 -963 4z m940
-154 c63 -16 112 -71 120 -136 7 -60 40 -127 72 -149 14 -8 55 -20 92 -25 72
-10 104 -28 139 -79 21 -32 22 -40 22 -283 l0 -249 -62 4 c-51 4 -65 9 -85 32
-20 23 -23 38 -23 100 0 103 -22 169 -74 220 -80 81 -170 93 -333 47 -196 -55
-418 -54 -622 1 -162 45 -247 32 -327 -48 -52 -51 -74 -117 -74 -220 0 -63 -3
-77 -24 -101 -22 -25 -31 -28 -88 -28 l-63 0 0 260 c1 241 2 265 23 332 52
167 203 296 377 323 83 12 880 12 930 -1z m-812 -659 c39 -12 115 -27 167 -35
180 -28 402 -15 577 35 94 26 115 25 151 -5 27 -23 29 -29 36 -126 5 -84 11
-111 33 -152 48 -87 120 -126 236 -127 l67 0 0 -92 c0 -116 -11 -138 -71 -155
-69 -20 -87 -45 -104 -149 -30 -185 -87 -299 -215 -426 -73 -72 -103 -94 -182
-132 -114 -56 -201 -76 -329 -76 -120 0 -221 25 -332 81 -64 33 -102 63 -172
133 -126 127 -180 235 -210 420 -17 106 -34 128 -110 151 -63 18 -65 23 -65
153 l0 92 64 0 c109 0 187 40 234 119 22 37 27 62 33 150 6 101 7 106 38 133
37 33 58 34 154 8z m190 -1575 c139 -32 356 -16 490 36 l47 19 -1 -123 -1
-122 -173 -160 c-96 -88 -177 -160 -180 -160 -3 0 -84 72 -180 160 l-173 160
-1 122 -1 123 53 -20 c28 -11 83 -26 120 -35z m-225 -343 c53 -49 141 -131
195 -183 l98 -94 -91 -75 c-99 -81 -113 -88 -137 -68 -14 11 -297 383 -316
415 -5 8 12 27 44 53 76 60 91 57 207 -48z m1021 48 c34 -27 49 -45 44 -53
-19 -32 -278 -375 -301 -399 -14 -16 -33 -28 -41 -28 -15 0 -194 144 -198 159
-1 6 170 167 318 299 86 76 106 79 178 22z m32 -412 c-49 -190 -116 -363 -261
-675 -24 -51 -46 -93 -50 -93 -3 0 -34 106 -68 235 l-63 236 33 39 c28 34 39
40 74 40 23 0 62 11 91 26 45 22 67 45 159 169 60 80 109 143 111 141 2 -2
-10 -55 -26 -118z m-1048 -192 c28 -15 67 -26 87 -26 29 0 44 -8 74 -39 l38
-39 -48 -221 c-27 -122 -52 -221 -56 -221 -9 0 -176 332 -228 454 -44 105
-114 307 -125 366 -6 29 11 11 100 -107 91 -122 114 -146 158 -167z m477 115
l65 -59 -21 -28 c-20 -28 -25 -29 -114 -32 -84 -3 -95 -1 -116 19 -13 13 -24
28 -24 35 0 14 120 123 135 124 6 0 39 -27 75 -59z m-2 -313 c5 -18 42 -158
82 -310 l73 -276 -88 -154 c-48 -84 -93 -159 -99 -166 -10 -10 -34 22 -121
165 -60 97 -108 185 -108 195 1 10 30 144 64 298 l62 280 63 0 c63 0 63 0 72
-32z"/>
<path d="M3240 4363 c-49 -19 -70 -94 -33 -124 13 -11 117 -15 547 -19 l531
-5 5 -275 c6 -304 8 -315 72 -363 58 -43 87 -47 355 -47 l253 0 -2 -1254 -3
-1255 -29 -30 c-17 -17 -46 -36 -65 -41 -21 -6 -187 -10 -388 -10 l-352 0 -20
-26 c-12 -15 -21 -37 -21 -50 0 -28 30 -61 63 -69 13 -4 187 -5 387 -3 321 3
370 5 403 20 62 28 111 73 143 130 l29 53 3 1302 2 1301 -21 59 c-20 54 -44
81 -323 359 -228 228 -313 307 -351 325 l-50 24 -560 2 c-308 1 -567 -1 -575
-4z m1434 -671 c-144 -2 -211 1 -220 9 -11 9 -14 55 -14 223 l0 211 220 -220
220 -220 -206 -3z"/>
<path d="M3295 3168 c-33 -4 -89 -22 -125 -40 -225 -111 -307 -390 -177 -607
132 -220 446 -277 618 -112 37 36 49 55 49 77 0 63 -85 99 -126 53 -71 -78
-192 -97 -297 -45 -151 74 -203 265 -109 404 80 119 232 158 367 93 49 -24 69
-29 87 -22 36 14 50 36 46 77 -2 31 -10 43 -36 61 -80 54 -186 75 -297 61z"/>
<path d="M3846 3159 c-17 -14 -26 -30 -26 -49 0 -47 249 -762 272 -782 23 -20
60 -23 88 -8 10 5 27 34 38 62 64 171 252 718 252 732 0 25 -46 66 -74 66 -52
0 -70 -33 -161 -297 -48 -139 -91 -253 -95 -253 -3 0 -33 78 -65 173 -91 267
-123 351 -142 365 -25 18 -57 15 -87 -9z"/>
</g>
</svg>
